<svg width="24" height="26" viewBox="0 0 24 26" fill="none" xmlns="http://www.w3.org/2000/svg">
<path d="M3.80802 1.5541C5.95605 0.577724 8.85329 0 12 0C15.1467 0 18.044 0.577724 20.192 1.5541C22.2497 2.48944 24 3.98601 24 6C24 6.31168 23.8396 6.7208 23.3056 7.20637C22.7713 7.69221 21.9425 8.17563 20.8334 8.60219C18.622 9.45274 15.4992 10 12 10C8.5008 10 5.37802 9.45274 3.16659 8.60219C2.05754 8.17563 1.22865 7.69221 0.694375 7.20637C0.160386 6.7208 0 6.31168 0 6C0 3.98601 1.75027 2.48944 3.80802 1.5541Z" fill="#69E4FF"/>
<path d="M0 9.20566V14C0 14.3117 0.160386 14.7208 0.694375 15.2064C1.22865 15.6922 2.05754 16.1756 3.16659 16.6022C5.37802 17.4527 8.5008 18 12 18C15.4992 18 18.622 17.4527 20.8334 16.6022C21.9425 16.1756 22.7713 15.6922 23.3056 15.2064C23.8396 14.7208 24 14.3117 24 14V9.20566C23.312 9.69131 22.4786 10.1123 21.5514 10.4689C19.0577 11.428 15.6805 12 12 12C8.3195 12 4.94228 11.428 2.44863 10.4689C1.52143 10.1123 0.687954 9.69131 0 9.20566Z" fill="#69E4FF"/>
<path d="M24 17.2057C23.312 17.6913 22.4786 18.1123 21.5514 18.4689C19.0577 19.428 15.6805 20 12 20C8.3195 20 4.94228 19.428 2.44863 18.4689C1.52143 18.1123 0.687954 17.6913 0 17.2057V22C0 24 5.5 26 12 26C18.5 26 24 24 24 22V17.2057Z" fill="#69E4FF"/>
</svg>
